<svg width="1816" height="333" viewBox="0 0 1816 333" fill="none" xmlns="http://www.w3.org/2000/svg">
<g style="mix-blend-mode:hard-light" opacity="0.1">
<path d="M0.984376 328L65.7844 3.99998H128.984L193.784 328H138.984L126.184 253.2H69.7844L56.5844 328H0.984376ZM75.7844 215.6H119.784L97.7844 79.6L75.7844 215.6ZM313.606 332.4C289.606 332.4 270.94 328 257.606 319.2C244.273 310.4 235.073 297.867 230.006 281.6C224.94 265.333 222.406 245.867 222.406 223.2V3.99998H280.006V230C280.006 240.133 280.673 249.733 282.006 258.8C283.34 267.6 286.406 274.8 291.206 280.4C296.273 285.733 303.74 288.4 313.606 288.4C324.006 288.4 331.473 285.733 336.006 280.4C340.806 274.8 343.873 267.6 345.206 258.8C346.806 249.733 347.606 240.133 347.606 230V3.99998H404.806V223.2C404.806 245.867 402.273 265.333 397.206 281.6C392.14 297.867 382.94 310.4 369.606 319.2C356.54 328 337.873 332.4 313.606 332.4ZM483.769 328V47.6H432.169V3.99998H593.769V47.6H542.969V328H483.769ZM709.681 332.4C686.748 332.4 668.481 328.133 654.881 319.6C641.281 311.067 631.548 298.8 625.681 282.8C619.815 266.8 616.881 247.867 616.881 226V104.8C616.881 82.9333 619.815 64.2667 625.681 48.8C631.548 33.0667 641.281 21.0667 654.881 12.8C668.481 4.53331 686.748 0.399974 709.681 0.399974C733.148 0.399974 751.548 4.53331 764.881 12.8C778.481 21.0667 788.215 33.0667 794.081 48.8C800.215 64.2667 803.281 82.9333 803.281 104.8V226.4C803.281 248 800.215 266.8 794.081 282.8C788.215 298.533 778.481 310.8 764.881 319.6C751.548 328.133 733.148 332.4 709.681 332.4ZM709.681 288.8C719.548 288.8 726.748 286.667 731.281 282.4C736.081 278.133 739.281 272.267 740.881 264.8C742.481 257.333 743.281 249.2 743.281 240.4V91.2C743.281 82.1333 742.481 74 740.881 66.8C739.281 59.6 736.081 54 731.281 50C726.748 45.7333 719.548 43.6 709.681 43.6C700.348 43.6 693.281 45.7333 688.481 50C683.681 54 680.481 59.6 678.881 66.8C677.281 74 676.481 82.1333 676.481 91.2V240.4C676.481 249.2 677.148 257.333 678.481 264.8C680.081 272.267 683.281 278.133 688.081 282.4C692.881 286.667 700.081 288.8 709.681 288.8ZM1032.34 332.4C1009.4 332.4 991.138 328.133 977.538 319.6C963.938 311.067 954.204 298.8 948.338 282.8C942.471 266.8 939.538 247.867 939.538 226V104.8C939.538 82.9333 942.471 64.2667 948.338 48.8C954.204 33.0667 963.938 21.0667 977.538 12.8C991.138 4.53331 1009.4 0.399974 1032.34 0.399974C1055.8 0.399974 1074.2 4.53331 1087.54 12.8C1101.14 21.0667 1110.87 33.0667 1116.74 48.8C1122.87 64.2667 1125.94 82.9333 1125.94 104.8V226.4C1125.94 248 1122.87 266.8 1116.74 282.8C1110.87 298.533 1101.14 310.8 1087.54 319.6C1074.2 328.133 1055.8 332.4 1032.34 332.4ZM1032.34 288.8C1042.2 288.8 1049.4 286.667 1053.94 282.4C1058.74 278.133 1061.94 272.267 1063.54 264.8C1065.14 257.333 1065.94 249.2 1065.94 240.4V91.2C1065.94 82.1333 1065.14 74 1063.54 66.8C1061.94 59.6 1058.74 54 1053.94 50C1049.4 45.7333 1042.2 43.6 1032.34 43.6C1023 43.6 1015.94 45.7333 1011.14 50C1006.34 54 1003.14 59.6 1001.54 66.8C999.938 74 999.138 82.1333 999.138 91.2V240.4C999.138 249.2 999.804 257.333 1001.14 264.8C1002.74 272.267 1005.94 278.133 1010.74 282.4C1015.54 286.667 1022.74 288.8 1032.34 288.8ZM1150.98 328L1215.78 3.99998H1278.98L1343.78 328H1288.98L1276.18 253.2H1219.78L1206.58 328H1150.98ZM1225.78 215.6H1269.78L1247.78 79.6L1225.78 215.6ZM1456.41 332.4C1436.94 332.4 1420.67 328.667 1407.61 321.2C1394.54 313.467 1384.67 302.267 1378.01 287.6C1371.34 272.933 1367.61 254.933 1366.81 233.6L1417.61 223.6C1418.14 236.133 1419.61 247.2 1422.01 256.8C1424.67 266.4 1428.54 273.867 1433.61 279.2C1438.94 284.267 1445.87 286.8 1454.41 286.8C1464.01 286.8 1470.81 284 1474.81 278.4C1478.81 272.533 1480.81 265.2 1480.81 256.4C1480.81 242.267 1477.61 230.667 1471.21 221.6C1464.81 212.533 1456.27 203.467 1445.61 194.4L1404.81 158.4C1393.34 148.533 1384.14 137.6 1377.21 125.6C1370.54 113.333 1367.21 98.2667 1367.21 80.4C1367.21 54.8 1374.67 35.0667 1389.61 21.2C1404.54 7.33331 1424.94 0.399974 1450.81 0.399974C1466.01 0.399974 1478.67 2.79997 1488.81 7.59998C1498.94 12.1333 1506.94 18.5333 1512.81 26.8C1518.94 35.0666 1523.47 44.5333 1526.41 55.2C1529.34 65.6 1531.21 76.6667 1532.01 88.4L1481.61 97.2C1481.07 87.0667 1479.87 78 1478.01 70C1476.41 62 1473.34 55.7333 1468.81 51.2C1464.54 46.6666 1458.14 44.4 1449.61 44.4C1440.81 44.4 1434.01 47.3333 1429.21 53.2C1424.67 58.8 1422.41 65.8667 1422.41 74.4C1422.41 85.3333 1424.67 94.4 1429.21 101.6C1433.74 108.533 1440.27 115.733 1448.81 123.2L1489.21 158.8C1502.54 170 1513.87 183.2 1523.21 198.4C1532.81 213.333 1537.61 231.467 1537.61 252.8C1537.61 268.267 1534.14 282 1527.21 294C1520.54 306 1511.07 315.467 1498.81 322.4C1486.81 329.067 1472.67 332.4 1456.41 332.4ZM1570.94 328V3.99998H1629.34V328H1570.94ZM1668.29 328V290L1755.49 44.8H1673.09V3.99998H1815.09V34.4L1724.69 287.2H1815.49V328H1668.29Z" fill="black"/>
</g>
</svg>
