<svg width="154" height="37" viewBox="0 0 154 37" fill="none" xmlns="http://www.w3.org/2000/svg">
<path d="M26.7346 0H11.4694L0 36.5305H15.3469L20.653 19.5918L28.9795 36.5305H45.9999L35.3061 18L56.0815 0H37.8775L22 15.4285L26.7346 0Z" fill="white"/>
<path d="M70.8162 10.0816H57.1836L48.8571 36.5305H62.6121L70.8162 10.0816Z" fill="white"/>
<path d="M75.2243 10.0816H89.0611L92.6121 15.3877L99.3876 10.0816H113.632L97.5917 23.3469L106.122 36.4081H106.53L123.388 22.7347L115.143 10.0816H129.02L132.49 15.4285L139.347 10.0816H153.673L137.592 23.3469L146.163 36.4081H132.163L128.449 30.8571L121.673 36.4081H106.53H106.122H92.2447L88.5713 30.8979L81.8774 36.4081H66.2448L83.3468 22.7755L75.2243 10.0816Z" fill="white"/>
<path d="M74.0816 0H60.4489L57.5918 8.81631L65.8367 4.40815L74.0816 0Z" fill="#FF400A"/>
</svg>
