<svg width="308" height="61" viewBox="0 0 308 61" fill="none" xmlns="http://www.w3.org/2000/svg">
<path d="M205.025 19.7911C205.025 34.6429 195.61 47.8158 181.811 47.8158C172.009 47.8158 165.818 40.7128 165.818 30.1228C165.818 14.367 176.007 1.58151 189.162 1.58151C199.479 1.58151 205.025 9.07199 205.025 19.7911ZM175.233 32.3183C175.233 39.4213 177.297 45.1037 182.327 45.1037C190.452 45.1037 195.739 28.9605 195.739 16.9499C195.739 10.3634 194.321 4.29358 188.775 4.29358C181.682 4.29358 175.233 17.8539 175.233 32.3183Z" fill="white"/>
<path d="M238.815 39.9379C234.172 45.4912 229.271 47.8158 227.208 47.8158C225.66 47.8158 224.241 46.7826 225.531 40.8419L226.176 37.355H226.047C223.726 40.7128 221.533 42.7791 219.599 44.458C217.535 46.1369 214.956 47.8158 212.763 47.8158C210.313 47.8158 208.249 45.1038 208.249 39.8088C208.249 33.2223 211.087 26.1193 215.472 21.7283C218.567 18.7579 224.628 15.5293 229.658 15.5293C230.69 15.5293 232.238 15.7876 233.656 16.0459C235.204 16.4333 236.236 16.5625 237.396 16.5625L237.654 16.8208C236.236 22.8906 234.559 30.1228 233.011 38.9047C232.624 40.7128 232.753 41.3585 233.269 41.3585C233.914 41.3585 235.978 39.8088 237.525 38.259L238.815 39.9379ZM226.95 31.8017C227.982 27.7982 229.013 23.1489 229.658 19.7911C228.755 19.2745 227.466 18.8871 226.176 18.8871C224.886 18.8871 223.983 19.2745 223.081 20.0494C218.954 23.5364 216.89 31.9308 216.89 38.3882C216.89 40.8419 217.406 41.746 218.18 41.746C220.372 41.6168 225.918 33.9972 226.95 31.8017Z" fill="white"/>
<path d="M240.749 42.65C240.621 41.1002 241.91 39.5505 242.942 38.9047C244.103 38.1299 244.876 38.259 245.392 39.0339C247.714 42.1334 250.293 43.6831 252.486 43.6831C254.033 43.6831 255.452 42.7791 255.452 41.2294C255.452 39.6796 254.678 38.3882 251.454 35.9344C248.746 33.6097 245.263 30.8977 245.263 27.0233C245.263 24.5695 245.908 21.9866 249.39 19.0162C251.97 16.8208 255.065 15.5293 257.515 15.5293C260.998 15.5293 263.319 17.5956 263.319 19.662C263.319 20.9534 262.545 22.374 261.127 23.2781C260.353 23.9238 259.579 23.7946 259.063 23.1489C257.773 21.47 255.839 19.4037 253.517 19.4037C252.099 19.4037 251.067 20.4368 251.067 21.8575C251.067 23.5364 252.615 25.4735 255.452 27.5399C258.934 30.1228 261.514 32.7057 261.514 36.1927C261.514 42.5208 254.033 47.6867 248.23 47.6867C244.49 47.6867 240.749 45.6203 240.749 42.65Z" fill="white"/>
<path d="M280.73 40.4545C276.345 45.6203 271.444 47.8158 269.252 47.8158C267.446 47.8158 266.027 46.3952 267.317 41.1002L271.057 24.4404C271.444 22.8906 271.444 22.2449 270.928 22.2449C270.412 22.2449 268.22 23.6655 266.93 24.6987L266.027 22.8906C270.541 18.4996 275.571 15.6584 278.022 15.6584C280.085 15.6584 280.472 17.9831 279.311 22.6323L275.442 38.7756C274.926 40.7128 275.184 41.2294 275.7 41.2294C276.216 41.2294 277.893 40.1962 279.698 38.6464L280.73 40.4545ZM282.02 6.10163C282.02 8.81369 280.085 11.2675 276.99 11.2675C274.797 11.2675 273.379 9.71772 273.379 7.39309C273.379 4.68102 275.184 2.0981 278.279 2.0981C280.859 2.0981 282.02 4.16443 282.02 6.10163Z" fill="white"/>
<path d="M283.051 42.65C282.922 41.1002 284.212 39.5505 285.244 38.9047C286.405 38.1299 287.178 38.259 287.694 39.0339C290.016 42.1334 292.595 43.6831 294.788 43.6831C296.335 43.6831 297.754 42.7791 297.754 41.2294C297.754 39.6796 296.98 38.3882 293.756 35.9344C291.047 33.6097 287.565 30.8977 287.565 27.0233C287.565 24.5695 288.21 21.9866 291.692 19.0162C294.272 16.8208 297.367 15.5293 299.817 15.5293C303.3 15.5293 305.621 17.5956 305.621 19.662C305.621 20.9534 304.847 22.374 303.428 23.2781C302.655 23.9238 301.881 23.7946 301.365 23.1489C300.075 21.47 298.141 19.4037 295.819 19.4037C294.401 19.4037 293.369 20.4368 293.369 21.8575C293.369 23.5364 294.917 25.4735 297.754 27.5399C301.236 30.1228 303.815 32.7057 303.815 36.1927C303.815 42.5208 296.335 47.6867 290.532 47.6867C286.791 47.6867 283.051 45.6203 283.051 42.65Z" fill="white"/>
<path d="M24.4685 10.88C35.6888 10.88 41.4924 14.1087 41.4924 20.3077C41.4924 21.8575 41.2344 23.5364 40.5896 26.6359L38.1392 38.259C37.7523 40.3253 37.2364 42.3917 37.2364 44.5872C37.2364 45.8786 37.3654 46.7826 37.6233 47.8158H23.8236C23.6946 47.2992 23.6946 47.0409 23.6946 46.5244C23.6946 45.8786 23.6946 45.7495 23.8236 44.3289C21.2442 47.4284 17.2462 48.9781 12.4743 48.9781C5.25207 48.9781 0.867126 45.2329 0.867126 38.9047C0.867126 30.6394 7.05764 27.4107 17.2462 26.6359C23.9526 26.1193 28.3375 26.5067 28.3375 22.2449C28.3375 20.4368 26.7899 19.2745 23.8236 19.2745C20.8573 19.2745 19.5676 20.1786 18.5359 23.0198H5.76795C7.70249 12.8172 15.6986 10.88 24.4685 10.88ZM19.0518 33.3515C16.7303 33.7389 14.6668 34.6429 14.6668 37.4841C14.6668 39.6796 16.0855 40.8419 18.6649 40.8419C23.3077 40.8419 24.8554 38.1299 25.8871 33.9972L26.403 31.8017C24.3395 33.0932 21.3732 32.8349 19.0518 33.3515Z" fill="#FFF504"/>
<path d="M80.8279 47.6867H67.5441L68.5759 42.7791C65.7385 46.7827 62.1274 48.7198 56.8397 48.7198C50.2623 48.7198 46.0063 44.9746 46.0063 39.2922C46.0063 37.8716 46.2642 35.1595 46.6511 33.6098L51.165 12.0424H64.9647L60.7088 32.1891C60.5798 32.964 60.4508 33.9972 60.4508 34.6429C60.4508 36.8384 61.8695 38.1299 64.3199 38.1299C67.4151 38.1299 69.6076 35.8052 70.5104 31.2851L74.6374 11.9132H88.3081L80.8279 47.6867Z" fill="#FFF504"/>
<path d="M117.584 20.4368H110.233L107.653 32.1891C107.267 33.6097 107.009 35.1595 107.009 35.6761C107.009 38.1299 108.814 38.1299 110.749 38.1299C112.038 38.1299 113.199 38.1299 114.489 38.0007L112.425 47.6867C109.459 48.2033 108.298 48.2033 104.429 48.2033C98.7546 48.2033 92.5641 46.9118 92.5641 39.9379C92.5641 38.5173 92.6931 37.7424 93.7248 32.964L96.4332 20.4368H90.5006L92.4351 11.9132H98.3677L100.818 0.935791H114.489L112.167 11.9132H119.519L117.584 20.4368Z" fill="#FFF504"/>
<path d="M136.929 48.7198C126.741 48.7198 119.132 44.0706 119.132 32.7057C119.132 19.9203 127.515 11.0092 140.541 11.0092C150.6 11.0092 158.338 16.0459 158.338 26.8942C158.467 39.6796 150.084 48.7198 136.929 48.7198ZM132.673 33.3515C132.673 37.2258 134.35 39.2922 137.574 39.2922C143.249 39.2922 144.926 30.7685 144.926 26.5067C144.926 23.2781 143.636 20.566 140.025 20.566C134.35 20.4368 132.673 28.9605 132.673 33.3515Z" fill="#FFF504"/>
<path d="M307.298 56.9852H1.7699V60.2138H307.298V56.9852Z" fill="white"/>
</svg>
